<svg width="61" height="440" xmlns="http://www.w3.org/2000/svg">
 <g>
  <title>Layer 1</title>
  <g id="svg_2">
   <g id="svg_3">
    <g id="svg_4">
     <g id="svg_5">
      <path id="svg_6" d="m60.25,195c0,2.75 -2.25,5 -5,5h-50c-2.75,0 -5,-2.25 -5,-5v-30c0,-2.75 2.25,-5 5,-5h50c2.75,0 5,2.25 5,5v30l0,0z" fill="#5EC1EC"/>
      <path id="svg_7" d="m58.781006,161.468994c0.906006,0.906006 1.468994,2.156006 1.468994,3.531006v15v15c0,1.375 -0.561981,2.625 -1.468994,3.530975c-0.906982,0.906006 -2.156006,1.469025 -3.531006,1.469025h-25h-25c-1.375,0 -2.625,-0.562012 -3.530975,-1.469025l57.061981,-37.061981z" fill="#5BBBE6"/>
      <g id="svg_8">
       <path id="svg_9" d="m17.804993,184.921997l-0.457001,-1.73999h-3.014984l-0.470001,1.73999h-2.755005l3.027985,-9.317993h3.345001l3.065002,9.317993h-2.740997l0,0zm-0.97699,-3.796997l-0.399994,-1.52301c-0.093994,-0.337982 -0.206024,-0.774994 -0.339996,-1.312988c-0.133026,-0.537994 -0.221008,-0.923004 -0.264008,-1.154999c-0.037018,0.216003 -0.113007,0.570984 -0.225006,1.06601c-0.112,0.494995 -0.360992,1.470978 -0.746002,2.925995l1.975006,-0.001007l0,0z" fill="#FFFFFF"/>
       <path id="svg_10" d="m25.593994,184.921997l-1.89798,-6.684998h-0.057007c0.088989,1.138 0.132996,2.022003 0.132996,2.653992v4.029999h-2.221008v-9.280975h3.338013l1.936981,6.589996h0.051025l1.896973,-6.589996h3.346008v9.280975h-2.304993v-4.069c0,-0.210999 0.003998,-0.444977 0.01001,-0.703979c0.005981,-0.259003 0.034973,-0.891022 0.085999,-1.89801h-0.057007l-1.873016,6.671997h-2.386993l0,0z" fill="#FFFFFF"/>
       <path id="svg_11" d="m39.368988,184.921997h-5.509979v-9.281006h5.509979v2.013h-3.003998v1.460022h2.781006v2.011993h-2.781006v1.751984h3.003998v2.044006l0,0z" fill="#FFFFFF"/>
       <path id="svg_12" d="m49.354004,184.921997h-2.899994l-1.811005,-2.899994l-1.789001,2.899994h-2.838013l3.078003,-4.747986l-2.894989,-4.53302h2.781006l1.675995,2.869019l1.610992,-2.869019h2.863007l-2.938995,4.729004l3.162994,4.552002z" fill="#FFFFFF"/>
      </g>
      <g id="svg_13">
       <path id="svg_14" d="m17.804993,184.921997l-0.457001,-1.73999h-3.014984l-0.470001,1.73999h-2.755005l3.027985,-9.317993h3.345001l3.065002,9.317993h-2.740997l0,0zm-0.97699,-3.796997l-0.399994,-1.52301c-0.093994,-0.337982 -0.206024,-0.774994 -0.339996,-1.312988c-0.133026,-0.537994 -0.221008,-0.923004 -0.264008,-1.154999c-0.037018,0.216003 -0.113007,0.570984 -0.225006,1.06601c-0.112,0.494995 -0.360992,1.470978 -0.746002,2.925995l1.975006,-0.001007l0,0z" fill="#FFFFFF"/>
       <path id="svg_15" d="m25.593994,184.921997l-1.89798,-6.684998h-0.057007c0.088989,1.138 0.132996,2.022003 0.132996,2.653992v4.029999h-2.221008v-9.280975h3.338013l1.936981,6.589996h0.051025l1.896973,-6.589996h3.346008v9.280975h-2.304993v-4.069c0,-0.210999 0.003998,-0.444977 0.01001,-0.703979c0.005981,-0.259003 0.034973,-0.891022 0.085999,-1.89801h-0.057007l-1.873016,6.671997h-2.386993l0,0z" fill="#FFFFFF"/>
       <path id="svg_16" d="m39.368988,184.921997h-5.509979v-9.281006h5.509979v2.013h-3.003998v1.460022h2.781006v2.011993h-2.781006v1.751984h3.003998v2.044006l0,0z" fill="#FFFFFF"/>
       <path id="svg_17" d="m49.354004,184.921997h-2.899994l-1.811005,-2.899994l-1.789001,2.899994h-2.838013l3.078003,-4.747986l-2.894989,-4.53302h2.781006l1.675995,2.869019l1.610992,-2.869019h2.863007l-2.938995,4.729004l3.162994,4.552002z" fill="#FFFFFF"/>
      </g>
      <path id="svg_18" d="m30.25,160" fill="#56B1D9"/>
     </g>
     <g id="svg_19">
      <path id="svg_20" d="m55.25,161c2.205994,0 4,1.794006 4,4v30c0,2.205994 -1.794006,4 -4,4h-50c-2.205994,0 -4,-1.794006 -4,-4v-30c0,-2.205994 1.794006,-4 4,-4h50m0,-1h-50c-2.75,0 -5,2.25 -5,5v30c0,2.75 2.25,5 5,5h50c2.75,0 5,-2.25 5,-5v-30c0,-2.75 -2.25,-5 -5,-5l0,0z" fill="#9BCEE0"/>
     </g>
    </g>
    <g id="svg_21">
     <path id="svg_22" d="m60,115.25c0,2.75 -2.25,5 -5,5h-50c-2.75,0 -5,-2.25 -5,-5v-30c0,-2.75 2.25,-5 5,-5h50c2.75,0 5,2.25 5,5v30l0,0z" fill="#5565AF"/>
     <path id="svg_23" d="m58.531006,81.718994c0.906006,0.906006 1.468994,2.156006 1.468994,3.531006v15v15c0,1.375 -0.561981,2.625 -1.468994,3.530975c-0.906982,0.906006 -2.156006,1.469025 -3.531006,1.469025h-24.999985h-25c-1.375,0 -2.625,-0.562012 -3.531006,-1.469025l57.061996,-37.061981z" fill="#FFFFFF" opacity="0.04"/>
     <path id="svg_24" d="m30,80.25" fill="#56B1D9"/>
     <g id="svg_25">
      <path id="svg_26" d="m30,93.649994c-1.832993,-2.080017 -4.509995,-3.399994 -7.5,-3.399994c-5.522003,0 -10,4.47699 -10,10c0,5.520996 4.477997,10 10,10c2.990005,0 5.667007,-1.320007 7.5,-3.401001c-1.552002,-1.762024 -2.5,-4.065002 -2.5,-6.598999s0.947998,-4.838013 2.5,-6.600006z" fill="#EA564B"/>
      <path id="svg_27" d="m30,93.649994c-1.552002,1.761993 -2.5,4.066986 -2.5,6.600006s0.947998,4.836975 2.5,6.598999c1.552002,-1.762024 2.5,-4.065002 2.5,-6.598999s-0.947998,-4.838013 -2.5,-6.600006z" fill="#EA564B"/>
     </g>
     <path id="svg_28" d="m37.5,90.25c-2.990005,0 -5.667007,1.320007 -7.5,3.399994c-0.432999,0.492004 -0.811996,1.029999 -1.143997,1.600006h2.287994c0.363998,0.625 0.647003,1.299011 0.871002,2h-4.044006c-0.202988,0.643005 -0.349991,1.30899 -0.418991,2h4.878998c0.033997,0.329987 0.067993,0.660004 0.067993,1c0,0.338013 -0.019989,0.67099 -0.052994,1h-4.895004c0.069,0.69101 0.216003,1.356995 0.419006,2h4.056c-0.223007,0.70401 -0.522003,1.372009 -0.886002,2h-2.285004c0.331009,0.567993 0.710999,1.106995 1.143997,1.598999c1.833008,2.080994 4.51001,3.401001 7.5,3.401001c5.522003,0 10,-4.479004 10,-10c0.001007,-5.52301 -4.47699,-10 -9.998993,-10z" fill="#E9D419"/>
     <g id="svg_29">
      <path id="svg_30" d="m55,81.25c2.205994,0 4,1.794006 4,4v30c0,2.205994 -1.794006,4 -4,4h-50c-2.205994,0 -4,-1.794006 -4,-4v-30c0,-2.205994 1.794006,-4 4,-4h50m0,-1h-50c-2.75,0 -5,2.25 -5,5v30c0,2.75 2.25,5 5,5h50c2.75,0 5,-2.25 5,-5v-30c0,-2.75 -2.25,-5 -5,-5l0,0z" fill="#7684B7"/>
     </g>
    </g>
    <g id="svg_31">
     <path id="svg_32" d="m60.5,274.950012c0,2.75 -2.25,5 -5,5h-50c-2.75,0 -5,-2.25 -5,-5v-30.000015c0,-2.75 2.25,-5 5,-5h50c2.75,0 5,2.25 5,5v30.000015l0,0z" fill="#F3F4F4"/>
     <g id="svg_33">
      <path id="svg_34" d="m30.5,239.949997" fill="#FFFFFF"/>
      <g id="svg_35">
       <path id="svg_36" d="m17.5,269.950012h-8v-15.000015c0,-2.761993 3.238007,-5 6,-5h6v15.000015c0,2.761993 -1.238007,5 -4,5z" fill="#5565AF"/>
       <path id="svg_37" d="m31.5,269.950012h-8v-15.000015c0,-2.761993 3.238007,-5 6,-5h6v15.000015c0,2.761993 -1.238007,5 -4,5z" fill="#EA564B"/>
       <path id="svg_38" d="m45.5,269.950012h-8v-15.000015c0,-2.761993 3.238007,-5 6,-5h6v15.000015c0,2.761993 -1.238007,5 -4,5z" fill="#99CD76"/>
      </g>
      <path id="svg_39" d="m59.031006,241.418991c0.906006,0.906006 1.468994,2.156006 1.468994,3.531006v15.000015v15c0,1.375 -0.561981,2.625 -1.468994,3.530975c-0.906982,0.906006 -2.156006,1.469025 -3.531006,1.469025h-25h-25c-1.375,0 -2.625,-0.562012 -3.530975,-1.469025l57.061981,-37.061996z" fill="#FFFFFF" opacity="0.08"/>
      <g id="svg_40">
       <path id="svg_41" d="m55.5,240.949997c2.205994,0 4,1.794006 4,4v30.000015c0,2.205994 -1.794006,4 -4,4h-50c-2.205994,0 -4,-1.794006 -4,-4v-30.000015c0,-2.205994 1.794006,-4 4,-4h50m0,-1h-50c-2.75,0 -5,2.25 -5,5v30.000015c0,2.75 2.25,5 5,5h50c2.75,0 5,-2.25 5,-5v-30.000015c0,-2.75 -2.25,-5 -5,-5l0,0z" fill="#F8F8F9"/>
      </g>
     </g>
    </g>
    <g id="svg_42">
     <path id="svg_43" d="m60.400002,435c0,2.75 -2.25,5 -5,5h-50.000001c-2.75,0 -5,-2.25 -5,-5v-30c0,-2.75 2.25,-5 5,-5h50.000001c2.75,0 5,2.25 5,5v30l0,0z" fill="#F3F4F4"/>
     <g id="svg_44">
      <g id="svg_45">
       <circle id="svg_46" r="10" cy="420" cx="27.234" fill="#009FDA"/>
       <path id="svg_47" d="m26.4,410c5,0 9.999025,4.477997 9.999025,10c0,5.520996 -4.999025,10 -9.999025,10v-20l0,0z" fill="#009FDA"/>
       <path id="svg_48" d="m26.4,430v-20h7.166994c5,0 9.999023,4.477997 9.999023,10c0,5.520996 -4.999023,10 -9.999023,10h-7.166994l0,0z" fill="#009FDA"/>
       <circle id="svg_49" r="9.438" cy="420" cx="27.234" fill="#F3F4F4"/>
       <g id="svg_50">
        <path id="svg_51" d="m31.837988,420c0,-2.72699 -2.437988,-5.007996 -4.437988,-5.609009v11.218018c2,-0.601013 4.437988,-2.880005 4.437988,-5.609009z" fill="#009FDA"/>
       </g>
       <g id="svg_52">
        <path id="svg_53" d="m19.962011,420c0,2.72699 2.437988,5.007996 4.437988,5.609009v-11.218994c-2,0.60199 -4.437988,2.881989 -4.437988,5.609985z" fill="#009FDA"/>
       </g>
      </g>
      <path id="svg_54" d="m58.931007,401.468994c0.906006,0.906006 1.468994,2.156006 1.468994,3.531006v15v15c0,1.375 -0.562012,2.625 -1.468994,3.530975c-0.906982,0.906006 -2.156006,1.469025 -3.531006,1.469025h-25.000002h-25c-1.375,0 -2.625,-0.562012 -3.531006,-1.469025l57.062013,-37.061981z" fill="#FFFFFF" opacity="0.08"/>
      <g id="svg_55">
       <path id="svg_56" d="m55.400002,401c2.205994,0 4,1.794006 4,4v30c0,2.205994 -1.794006,4 -4,4h-50.000001c-2.205994,0 -4,-1.794006 -4,-4v-30c0,-2.205994 1.794006,-4 4,-4h50.000001m0,-1h-50.000001c-2.75,0 -5,2.25 -5,5v30c0,2.75 2.25,5 5,5h50.000001c2.75,0 5,-2.25 5,-5v-30c0,-2.75 -2.25,-5 -5,-5l0,0z" fill="#F8F8F9"/>
      </g>
     </g>
    </g>
    <g id="svg_57">
     <path id="svg_58" d="m60.200001,355.100006c0,2.75 -2.25,5 -5,5h-50c-2.75,0 -5,-2.25 -5,-5v-30c0,-2.75 2.25,-5 5,-5h50c2.75,0 5,2.25 5,5v30l0,0z" fill="#FFF9F0"/>
     <g id="svg_59">
      <path id="svg_60" d="m15.33501,340.042999c0,1.001984 -0.285004,1.768982 -0.854004,2.302002c-0.570984,0.531982 -1.394989,0.798981 -2.471985,0.798981h-1.723999v-6.084991h1.909973c0.994019,0 1.765015,0.263 2.313019,0.787018c0.551971,0.523987 0.826996,1.256989 0.826996,2.196991zm-1.339996,0.033997c0,-1.307007 -0.578003,-1.959991 -1.730011,-1.959991h-0.687988v3.960999h0.553986c1.243011,0.001007 1.864014,-0.666992 1.864014,-2.001007z" fill="#414042"/>
      <path id="svg_61" d="m16.426014,343.144012v-6.084991h1.289978v6.084991h-1.289978l0,0z" fill="#414042"/>
      <path id="svg_62" d="m22.840992,341.45401c0,0.550995 -0.196991,0.981995 -0.593994,1.299011c-0.395996,0.315979 -0.945007,0.475983 -1.649994,0.475983c-0.64801,0 -1.223999,-0.122986 -1.723999,-0.365997v-1.199005c0.41098,0.184998 0.758972,0.312012 1.042999,0.389008c0.283997,0.074005 0.544983,0.110992 0.780975,0.110992c0.282013,0 0.5,-0.054993 0.651001,-0.161987c0.14801,-0.106995 0.22702,-0.27002 0.22702,-0.481995c0,-0.119019 -0.03302,-0.225006 -0.101013,-0.318024c-0.065002,-0.093994 -0.164001,-0.18399 -0.294006,-0.268982c-0.128998,-0.085022 -0.391998,-0.223999 -0.787994,-0.412018c-0.371002,-0.174988 -0.648987,-0.343994 -0.837006,-0.503998c-0.186981,-0.160004 -0.333984,-0.346985 -0.444977,-0.561981s-0.166016,-0.464996 -0.166016,-0.75c0,-0.538025 0.182007,-0.960999 0.546997,-1.269012c0.365997,-0.30899 0.869019,-0.462006 1.514008,-0.462006c0.31601,0 0.618011,0.037018 0.904999,0.112c0.286987,0.074005 0.588013,0.181 0.901001,0.31601l-0.416016,1.002991c-0.324982,-0.132996 -0.595001,-0.227997 -0.806976,-0.278992c-0.213013,-0.052002 -0.421997,-0.07901 -0.626007,-0.07901c-0.244995,0 -0.433014,0.056 -0.562012,0.171021c-0.130981,0.113983 -0.195984,0.261993 -0.195984,0.444977c0,0.114014 0.026001,0.212006 0.078979,0.298004c0.053009,0.085022 0.137024,0.166016 0.252014,0.244995s0.389008,0.221008 0.817993,0.427002c0.567993,0.272003 0.958008,0.545013 1.170013,0.818024c0.212006,0.270996 0.317993,0.605988 0.317993,1.002991z" fill="#414042"/>
      <path id="svg_63" d="m26.528004,338.045013c-0.485992,0 -0.860992,0.18399 -1.127991,0.546997c-0.268005,0.365021 -0.399017,0.875 -0.399017,1.526001c0,1.356018 0.509003,2.035004 1.527008,2.035004c0.428009,0 0.942993,-0.104004 1.553009,-0.320007v1.082001c-0.5,0.209015 -1.058014,0.312012 -1.674011,0.312012c-0.88501,0 -1.562012,-0.269989 -2.031006,-0.807007c-0.468994,-0.536011 -0.703003,-1.307007 -0.703003,-2.312012c0,-0.632996 0.115997,-1.186981 0.347015,-1.661987c0.229004,-0.477997 0.561005,-0.841003 0.992004,-1.095001c0.432983,-0.253998 0.937988,-0.381012 1.517975,-0.381012c0.591003,0 1.186005,0.143005 1.781006,0.429016l-0.415985,1.049011c-0.229004,-0.108002 -0.455994,-0.202026 -0.688019,-0.28302c-0.230988,-0.080994 -0.457001,-0.119995 -0.678986,-0.119995z" fill="#414042"/>
      <path id="svg_64" d="m38.409016,337.059021h1.303009l-2.067017,6.084991h-1.406982l-2.064026,-6.084991h1.304016l1.144989,3.621002c0.063019,0.214996 0.131012,0.462006 0.197998,0.747986c0.06601,0.285004 0.109009,0.480011 0.127014,0.59201c0.029999,-0.255005 0.134003,-0.699005 0.312012,-1.339996l1.148987,-3.621002z" fill="#414042"/>
      <path id="svg_65" d="m43.982014,343.144012h-3.505005v-6.084991h3.505005v1.057983h-2.215027v1.335999h2.062012v1.057007h-2.062012v1.567993h2.215027v1.06601l0,0z" fill="#414042"/>
      <path id="svg_66" d="m46.542011,340.809021v2.334991h-1.290009v-6.084991h1.77301c0.826996,0 1.437988,0.149994 1.835999,0.451996c0.395996,0.300995 0.595001,0.756989 0.595001,1.371002c0,0.356995 -0.098999,0.677002 -0.295013,0.955017c-0.196991,0.278992 -0.475983,0.497986 -0.835999,0.655975c0.915009,1.366028 1.511017,2.251007 1.789001,2.650024h-1.431976l-1.453003,-2.335022l-0.687012,0.001007l0,0zm0,-1.049011h0.416992c0.407013,0 0.709015,-0.067993 0.903015,-0.203003c0.192993,-0.136993 0.290985,-0.351013 0.290985,-0.641998c0,-0.289001 -0.100006,-0.493011 -0.298004,-0.615997c-0.197998,-0.123016 -0.504974,-0.183014 -0.92099,-0.183014h-0.394012l0.002014,1.644012l0,0z" fill="#414042"/>
      <circle id="svg_67" r="3.043" cy="340.102" cx="31.266" fill="#E6A124"/>
     </g>
     <path id="svg_68" d="m60.200001,347.600006v7.5c0,0.687988 -0.140991,1.343994 -0.394989,1.94101c-0.255005,0.596985 -0.621002,1.136993 -1.074005,1.589996s-0.992004,0.819 -1.589996,1.074005c-0.598999,0.253998 -1.253998,0.394989 -1.94101,0.394989h-22.457001h-22.457002l49.914002,-12.5z" fill="#E6A124"/>
     <path id="svg_69" d="m58.731007,321.569c0.906006,0.906006 1.468994,2.156006 1.468994,3.531006v15v15c0,1.375 -0.561981,2.625 -1.468994,3.530975c-0.906982,0.906006 -2.156006,1.469025 -3.531006,1.469025h-25h-25c-1.375,0 -2.625,-0.562012 -3.530976,-1.469025l57.061982,-37.061981z" fill="#FFFFFF" opacity="0.08"/>
     <g id="svg_70">
      <path id="svg_71" d="m55.200001,321.100006c2.205994,0 4,1.794006 4,4v30c0,2.205994 -1.794006,4 -4,4h-50c-2.205994,0 -4,-1.794006 -4,-4v-30c0,-2.205994 1.794006,-4 4,-4h50m0,-1h-50c-2.75,0 -5,2.25 -5,5v30c0,2.75 2.25,5 5,5h50c2.75,0 5,-2.25 5,-5v-30c0,-2.75 -2.25,-5 -5,-5l0,0z" fill="#F7F5F2"/>
     </g>
    </g>
    <g id="svg_72">
     <path id="svg_73" d="m60.25,35.25c0,2.75 -2.25,5 -5,5h-50c-2.75,0 -5,-2.25 -5,-5v-30c0,-2.75 2.25,-5 5,-5h50c2.75,0 5,2.25 5,5v30l0,0z" fill="#F3F4F4"/>
     <path id="svg_74" d="m1.25,10.25v-5c0,-2.75 2.25,-5 5,-5h48c2.75,0 5,2.25 5,5v5" fill="#5565AF"/>
     <path id="svg_75" d="m59.25,30.25v5c0,2.75 -2.25,4 -5,4h-48c-2.75,0 -5,-1.25 -5,-4v-5" fill="#E6A124"/>
     <g id="svg_76">
      <path id="svg_77" d="m17.636993,23.628998c0.406006,-1.149994 0.69101,-1.886993 0.859009,-2.210999l3.375,-6.875h2.468994l-5.843994,11.421997h-2.609009l-0.991989,-11.421997h2.304993l0.39801,6.875c0.019989,0.234009 0.030991,0.582001 0.030991,1.039001c-0.011993,0.536987 -0.026993,0.928009 -0.046997,1.171997h0.054993l0,0z" fill="#5565AF"/>
      <path id="svg_78" d="m23.309006,25.964996l2.437988,-11.421997h2.383011l-2.438004,11.421997h-2.382996l0,0z" fill="#5565AF"/>
      <path id="svg_79" d="m35.434006,22.589996c0,1.089996 -0.386993,1.949005 -1.155991,2.582001c-0.771011,0.632996 -1.81601,0.949005 -3.133011,0.949005c-1.151993,0 -2.077988,-0.234009 -2.780991,-0.703003v-2.140991c1.003998,0.561981 1.938004,0.843994 2.796997,0.843994c0.582001,0 1.039001,-0.109009 1.367004,-0.332001c0.327988,-0.221008 0.491989,-0.52301 0.491989,-0.910004c0,-0.222992 -0.034988,-0.419983 -0.104996,-0.589996c-0.069992,-0.167999 -0.171997,-0.325989 -0.300995,-0.472992c-0.130997,-0.145996 -0.453003,-0.410004 -0.969009,-0.796997c-0.718994,-0.516998 -1.224991,-1.025024 -1.515991,-1.532013c-0.292999,-0.505005 -0.438004,-1.049011 -0.438004,-1.632996c0,-0.671997 0.160004,-1.270996 0.483994,-1.800995c0.322006,-0.528015 0.781006,-0.938995 1.379013,-1.234009c0.595993,-0.294006 1.280991,-0.44101 2.05899,-0.44101c1.128998,0 2.164001,0.257996 3.102005,0.77301l-0.852005,1.820007c-0.811996,-0.38501 -1.561996,-0.578003 -2.25,-0.578003c-0.43399,0 -0.787003,0.117004 -1.061996,0.35199c-0.276993,0.234009 -0.414001,0.545013 -0.414001,0.929993c0,0.318024 0.085999,0.596008 0.257996,0.832001c0.172012,0.237 0.557007,0.551025 1.156006,0.94101c0.628998,0.416992 1.102005,0.877014 1.414001,1.378998c0.311981,0.505005 0.468994,1.091003 0.468994,1.763z" fill="#5565AF"/>
      <path id="svg_80" d="m43.098007,23.246002h-3.695007l-1.343994,2.718994h-2.5l5.983994,-11.468994h2.914001l1.147995,11.468994h-2.319992l-0.186996,-2.718994zm-0.118011,-2.031006l-0.203003,-2.734009c-0.052994,-0.681976 -0.077988,-1.340973 -0.077988,-1.97699v-0.281006c-0.230011,0.625 -0.514008,1.287018 -0.852005,1.984009l-1.468994,3.007996h2.60199l0,0z" fill="#5565AF"/>
     </g>
     <path id="svg_81" d="m30.25,0.25" fill="#FFFFFF"/>
     <path id="svg_82" d="m58.781006,1.718994c0.906006,0.906006 1.469009,2.156006 1.469009,3.531006v15v15c0,1.375 -0.562012,2.625 -1.469009,3.530975c-0.906998,0.906006 -2.155991,1.469025 -3.530991,1.469025h-25h-25c-1.375,0 -2.625,-0.562012 -3.531006,-1.469025l57.061996,-37.061981z" fill="#FFFFFF" opacity="0.04"/>
     <g id="svg_83">
      <path id="svg_84" d="m55.25,1.25c2.205994,0 4,1.794006 4,4v30c0,2.205994 -1.794006,4 -4,4h-50c-2.205994,0 -4,-1.794006 -4,-4v-30c0,-2.205994 1.794006,-4 4,-4h50m0,-1h-50c-2.75,0 -5,2.25 -5,5v30c0,2.75 2.25,5 5,5h50c2.75,0 5,-2.25 5,-5v-30c0,-2.75 -2.25,-5 -5,-5l0,0z" fill="#F8F8F9"/>
     </g>
    </g>
   </g>
  </g>
 </g>
</svg>